HIERARCHY
ROOT hips
{
  OFFSET -0.00735851563513279 12.18665635585785 0.12248523347079754
  CHANNELS 6 Xposition Yposition Zposition Yrotation Xrotation Zrotation
  JOINT spine
  {
    OFFSET 1.0244548320770264e-7 0.5955291986465454 0
    CHANNELS 3 Yrotation Xrotation Zrotation
    JOINT chest
    {
      OFFSET 0 1.2719063864449713 0
      CHANNELS 3 Yrotation Xrotation Zrotation
      JOINT upperChest
      {
        OFFSET 0 1.490802666915459 0
        CHANNELS 3 Yrotation Xrotation Zrotation
        JOINT neck
        {
          OFFSET 0 1.3131953345263365 0
          CHANNELS 3 Yrotation Xrotation Zrotation
          JOINT head
          {
            OFFSET 0 0.8653679716847534 0
            CHANNELS 3 Yrotation Xrotation Zrotation
            JOINT leftEye
            {
              OFFSET 0.20629723300226033 0.6721053123474121 0.3036841657012701
              CHANNELS 3 Yrotation Xrotation Zrotation
              End Site
              {
                OFFSET 0.20629723300226033 0.6721053123474121 0.3036841657012701
              }
            }
            JOINT rightEye
            {
              OFFSET -0.20629652100615203 0.6721066236495972 0.30368443205952644
              CHANNELS 3 Yrotation Xrotation Zrotation
              End Site
              {
                OFFSET -0.20629652100615203 0.6721066236495972 0.30368443205952644
              }
            }
          }
        }
        JOINT leftShoulder
        {
          OFFSET 0.24624172446783632 0.959903359413147 0
          CHANNELS 3 Yrotation Xrotation Zrotation
          JOINT leftUpperArm
          {
            OFFSET 0.9650355761446514 0 0
            CHANNELS 3 Yrotation Xrotation Zrotation
            JOINT leftLowerArm
            {
              OFFSET 2.4419134471639827 0 0
              CHANNELS 3 Yrotation Xrotation Zrotation
              JOINT leftHand
              {
                OFFSET 2.3874557408809456 0 0
                CHANNELS 3 Yrotation Xrotation Zrotation
                JOINT leftIndexProximal
                {
                  OFFSET 0.7029628753662109 0.06118142604827881 0.23586585000157356
                  CHANNELS 3 Yrotation Xrotation Zrotation
                  JOINT leftIndexIntermediate
                  {
                    OFFSET 0.36102771759033203 -0.001475214958190918 0.056637559086084366
                    CHANNELS 3 Yrotation Xrotation Zrotation
                    JOINT leftIndexDistal
                    {
                      OFFSET 0.22344785928726196 -0.007408857345581055 0.02531452476978302
                      CHANNELS 3 Yrotation Xrotation Zrotation
                      End Site
                      {
                        OFFSET 0.22344785928726196 -0.007408857345581055 0.02531452476978302
                      }
                    }
                  }
                }
                JOINT leftLittleProximal
                {
                  OFFSET 0.6958752870559692 0.034375786781311035 -0.29472956992685795
                  CHANNELS 3 Yrotation Xrotation Zrotation
                  JOINT leftLittleIntermediate
                  {
                    OFFSET 0.34538060426712036 -0.0030041933059692383 0.00024324655532836914
                    CHANNELS 3 Yrotation Xrotation Zrotation
                    JOINT leftLittleDistal
                    {
                      OFFSET 0.19865047931671143 0.00746917724609375 -0.010377676226198673
                      CHANNELS 3 Yrotation Xrotation Zrotation
                      End Site
                      {
                        OFFSET 0.19865047931671143 0.00746917724609375 -0.010377676226198673
                      }
                    }
                  }
                }
                JOINT leftMiddleProximal
                {
                  OFFSET 0.7272291779518127 0.09209799766540527 0.05257739871740341
                  CHANNELS 3 Yrotation Xrotation Zrotation
                  JOINT leftMiddleIntermediate
                  {
                    OFFSET 0.40590834617614746 -0.014838695526123047 0.026817932724952698
                    CHANNELS 3 Yrotation Xrotation Zrotation
                    JOINT leftMiddleDistal
                    {
                      OFFSET 0.2495119571685791 -0.026458144187927246 0.010310646146535873
                      CHANNELS 3 Yrotation Xrotation Zrotation
                      End Site
                      {
                        OFFSET 0.2495119571685791 -0.026458144187927246 0.010310646146535873
                      }
                    }
                  }
                }
                JOINT leftRingProximal
                {
                  OFFSET 0.7334893345832825 0.09136629104614258 -0.1205735495314002
                  CHANNELS 3 Yrotation Xrotation Zrotation
                  JOINT leftRingIntermediate
                  {
                    OFFSET 0.3775520920753479 -0.005917906761169434 0.001896639820188284
                    CHANNELS 3 Yrotation Xrotation Zrotation
                    JOINT leftRingDistal
                    {
                      OFFSET 0.2177620530128479 0.007703900337219238 0.0027355607599020004
                      CHANNELS 3 Yrotation Xrotation Zrotation
                      End Site
                      {
                        OFFSET 0.2177620530128479 0.007703900337219238 0.0027355607599020004
                      }
                    }
                  }
                }
                JOINT leftThumbProximal
                {
                  OFFSET 0.02235114574432373 -0.07603192329406738 0.1950724683701992
                  CHANNELS 3 Yrotation Xrotation Zrotation
                  JOINT leftThumbIntermediate
                  {
                    OFFSET 0.3551589846611023 -0.02970755100250244 0.36741212010383606
                    CHANNELS 3 Yrotation Xrotation Zrotation
                    JOINT leftThumbDistal
                    {
                      OFFSET 0.23456048965454102 -0.016631245613098145 0.2093813568353653
                      CHANNELS 3 Yrotation Xrotation Zrotation
                      End Site
                      {
                        OFFSET 0.23456048965454102 -0.016631245613098145 0.2093813568353653
                      }
                    }
                  }
                }
              }
            }
          }
        }
        JOINT rightShoulder
        {
          OFFSET -0.24624088185373694 0.9600239992141724 0
          CHANNELS 3 Yrotation Xrotation Zrotation
          JOINT rightUpperArm
          {
            OFFSET -0.9650300767908009 0 0
            CHANNELS 3 Yrotation Xrotation Zrotation
            JOINT rightLowerArm
            {
              OFFSET -2.4420125187833426 0 0
              CHANNELS 3 Yrotation Xrotation Zrotation
              JOINT rightHand
              {
                OFFSET -2.3874255620910265 0 0
                CHANNELS 3 Yrotation Xrotation Zrotation
                JOINT rightIndexProximal
                {
                  OFFSET -0.7029609084129333 0.06117355823516846 0.23587234504520893
                  CHANNELS 3 Yrotation Xrotation Zrotation
                  JOINT rightIndexIntermediate
                  {
                    OFFSET -0.3610270619392395 -0.0014804601669311523 0.05664427950978279
                    CHANNELS 3 Yrotation Xrotation Zrotation
                    JOINT rightIndexDistal
                    {
                      OFFSET -0.2234485149383545 -0.0074127912521362305 0.025317884981632233
                      CHANNELS 3 Yrotation Xrotation Zrotation
                      End Site
                      {
                        OFFSET -0.2234485149383545 -0.0074127912521362305 0.025317884981632233
                      }
                    }
                  }
                }
                JOINT rightLittleProximal
                {
                  OFFSET -0.6958779096603394 0.034366607666015625 -0.29472311586141586
                  CHANNELS 3 Yrotation Xrotation Zrotation
                  JOINT rightLittleIntermediate
                  {
                    OFFSET -0.3453786373138428 -0.003008127212524414 0.00025422871112823486
                    CHANNELS 3 Yrotation Xrotation Zrotation
                    JOINT rightLittleDistal
                    {
                      OFFSET -0.19865179061889648 0.00746917724609375 -0.010371447540819645
                      CHANNELS 3 Yrotation Xrotation Zrotation
                      End Site
                      {
                        OFFSET -0.19865179061889648 0.00746917724609375 -0.010371447540819645
                      }
                    }
                  }
                }
                JOINT rightMiddleProximal
                {
                  OFFSET -0.7272304892539978 0.09209012985229492 0.05258418060839176
                  CHANNELS 3 Yrotation Xrotation Zrotation
                  JOINT rightMiddleIntermediate
                  {
                    OFFSET -0.4059063792228699 -0.014843940734863281 0.026821313425898552
                    CHANNELS 3 Yrotation Xrotation Zrotation
                    JOINT rightMiddleDistal
                    {
                      OFFSET -0.24951326847076416 -0.026460766792297363 0.010313207283616066
                      CHANNELS 3 Yrotation Xrotation Zrotation
                      End Site
                      {
                        OFFSET -0.24951326847076416 -0.026460766792297363 0.010313207283616066
                      }
                    }
                  }
                }
                JOINT rightRingProximal
                {
                  OFFSET -0.7334906458854675 0.09135580062866211 -0.12056719791144133
                  CHANNELS 3 Yrotation Xrotation Zrotation
                  JOINT rightRingIntermediate
                  {
                    OFFSET -0.37755340337753296 -0.005923151969909668 0.0019026175141334534
                    CHANNELS 3 Yrotation Xrotation Zrotation
                    JOINT rightRingDistal
                    {
                      OFFSET -0.21775943040847778 0.007701277732849121 0.0027383523993194103
                      CHANNELS 3 Yrotation Xrotation Zrotation
                      End Site
                      {
                        OFFSET -0.21775943040847778 0.007701277732849121 0.0027383523993194103
                      }
                    }
                  }
                }
                JOINT rightThumbProximal
                {
                  OFFSET -0.022347867488861084 -0.07603061199188232 0.19507363624870777
                  CHANNELS 3 Yrotation Xrotation Zrotation
                  JOINT rightThumbIntermediate
                  {
                    OFFSET -0.3550455570220947 -0.029461026191711426 0.36754218488931656
                    CHANNELS 3 Yrotation Xrotation Zrotation
                    JOINT rightThumbDistal
                    {
                      OFFSET -0.23451131582260132 -0.016489624977111816 0.20944765955209732
                      CHANNELS 3 Yrotation Xrotation Zrotation
                      End Site
                      {
                        OFFSET -0.23451131582260132 -0.016489624977111816 0.20944765955209732
                      }
                    }
                  }
                }
              }
            }
          }
        }
      }
    }
  }
  JOINT leftUpperLeg
  {
    OFFSET 0.8483456987887621 -0.42556869983673096 0
    CHANNELS 3 Yrotation Xrotation Zrotation
    JOINT leftLowerLeg
    {
      OFFSET 0 -4.6702112872869534 0
      CHANNELS 3 Yrotation Xrotation Zrotation
      JOINT leftFoot
      {
        OFFSET -0.13096565008163452 -5.202569782733917 -0.2985280640423298
        CHANNELS 3 Yrotation Xrotation Zrotation
        JOINT leftToes
        {
          OFFSET 0.01423943042755127 -0.7568342834711075 1.213271364569664
          CHANNELS 3 Yrotation Xrotation Zrotation
          End Site
          {
            OFFSET 0.01423943042755127 -0.7568342834711075 1.213271364569664
          }
        }
      }
    }
  }
  JOINT rightUpperLeg
  {
    OFFSET -0.8483468051999807 -0.42556607723236084 0
    CHANNELS 3 Yrotation Xrotation Zrotation
    JOINT rightLowerLeg
    {
      OFFSET 0 -4.670219469177788 0
      CHANNELS 3 Yrotation Xrotation Zrotation
      JOINT rightFoot
      {
        OFFSET 0.13097601756453514 -5.202573716640472 -0.29853164963424206
        CHANNELS 3 Yrotation Xrotation Zrotation
        JOINT rightToes
        {
          OFFSET -0.014232628047466278 -0.7568355947732925 1.213272675871849
          CHANNELS 3 Yrotation Xrotation Zrotation
          End Site
          {
            OFFSET -0.014232628047466278 -0.7568355947732925 1.213272675871849
          }
        }
      }
    }
  }
}
MOTION
Frames: 5
Frame Time: 0.03333333333333333
-1.9351020136304828 1.0359427253894558 0.19966425721591574 -15.248823975759727 -3.762519135223311 0.38081663998998405 3.243085411996247 -6.216493386578929 10.882359420435675 5.480742034946899 10.983352587724585 -7.277218341907881 0 0 0 -10.83082421032023 26.358942660557172 2.4119386230037465 -3.0163343921046684 -6.384360752640684 -7.612797721610074 0 0 0 0 0 0 -5.623485853674938 1.295914982600341 -8.812515519577481 -35.419164040200734 32.9300264933745 -48.47533360337771 -69.61476325108654 25.028581415924 3.876216431061079 -7.476601654294664 1.5593065266993398 -11.291652272023102 0 0 0 0 0 0 0 0 0 0 0 0 0 0 0 0 0 0 0 0 0 0 0 0 0 0 0 0 0 0 0 0 0 0 0 0 0 0 0 0 0 0 0 0 0 19.705248042336024 -3.9323730869829756 13.662863430762625 33.14270728555407 12.077119810966805 51.00874524162236 18.00742628869997 0.9077435410940573 -6.805600617895639 2.322552121273553 -0.4282772863707648 2.338586904430419 0 0 0 0 0 0 0 0 0 0 0 0 0 0 0 0 0 0 0 0 0 0 0 0 0 0 0 0 0 0 0 0 0 0 0 0 0 0 0 0 0 0 0 0 0 33.46236212744267 -3.4618689438657873 -4.104306729835789 -11.767135194400922 17.263771259749827 -2.791804028578658 2.365387456859003 -23.70682852214407 -1.8720992265910752 0 0 0 -15.25198452231519 -7.128638176356266 -0.5459627886033929 6.095325368008527 13.962828894437504 -5.052434322287244 3.8820409939383738 -6.023742606885809 -0.7101953386276576 0 0 0
-1.977560150061567 1.139135438358482 0.23782453874248505 -15.228186672519168 -2.981570894022142 1.2827798412773164 4.71149615697714 -7.589469293500562 11.097076214441959 7.675363609370733 10.874891609698093 -10.998850832178478 0 0 0 -11.546425097654776 27.56937509075629 3.3299083180497466 -5.2743228628904015 -3.5913984282573073 -7.094884376463164 0 0 0 0 0 0 -5.450826066606585 1.221604970585395 -9.543591744574067 -43.481905753788425 33.10997387895023 -54.76076886110247 -72.34397933905672 16.1509751774706 14.206710643631233 -6.70962179574822 0.628432052147297 -11.615227515361495 0 0 0 0 0 0 0 0 0 0 0 0 0 0 0 0 0 0 0 0 0 0 0 0 0 0 0 0 0 0 0 0 0 0 0 0 0 0 0 0 0 0 0 0 0 19.619209757812396 -4.236353366029567 14.890694042101822 40.61384889567968 20.498635020809512 59.619385638025 5.54819802237982 -14.445252195574263 -17.64702394011179 1.293745585812278 -0.7358426438681467 4.261266037400504 0 0 0 0 0 0 0 0 0 0 0 0 0 0 0 0 0 0 0 0 0 0 0 0 0 0 0 0 0 0 0 0 0 0 0 0 0 0 0 0 0 0 0 0 0 32.84111651260685 -0.05653085691010881 -8.251236137972676 -17.053561229591264 11.497255881394596 2.8598059878109856 2.1975070435024855 -22.592166765996655 -2.099418467404226 0 0 0 -15.730566675550849 -4.55115729069893 2.3543974802298684 10.508268153949928 8.025071035912209 -12.741781616127092 4.527403065663508 -1.7455775894703527 -0.5992923532293425 0 0 0
-2.012494088094766 1.1031233685714463 0.15613120973825098 -12.169267882550932 -2.4509586953850406 0.46707524886603946 4.474524600280733 -5.381358649652379 11.932935407836814 7.8633781983961795 9.429906898259778 -13.571422717759916 0 0 0 -12.503428752897731 24.39847093397732 4.614675363482298 -7.040346430294843 -0.8926038389467077 -6.909325840301062 0 0 0 0 0 0 -5.036499428133636 1.1173691774753196 -10.696579318065508 -46.1042514032033 30.931425192348854 -52.49739196341678 -77.31657928980968 15.03600207998592 15.442760963683703 -6.658042173892345 -0.08009936203502535 -11.900115637234624 0 0 0 0 0 0 0 0 0 0 0 0 0 0 0 0 0 0 0 0 0 0 0 0 0 0 0 0 0 0 0 0 0 0 0 0 0 0 0 0 0 0 0 0 0 19.504409093481602 -4.043137083161916 14.230617665363162 34.208377225321186 18.810697917924674 56.73003091666174 7.012503581722223 -7.887284349927936 -14.030834974629043 1.8721634055145129 -0.7162793045147527 4.030782636778075 0 0 0 0 0 0 0 0 0 0 0 0 0 0 0 0 0 0 0 0 0 0 0 0 0 0 0 0 0 0 0 0 0 0 0 0 0 0 0 0 0 0 0 0 0 31.295370027424358 -3.940630630550805 -6.284077377966582 -12.318453237409157 14.976935123263276 -0.3208857235508024 0.2502555169627349 -22.14506284043758 -0.1777144057518004 0 0 0 -17.167936993151507 -7.189210498064793 1.1263032438044873 5.377779657497341 12.540530603153833 -7.69115161266134 4.19866734595247 -6.355542572001717 -0.7006659064700261 0 0 0
-2.0474280261279647 1.067111298784411 0.07443788073401691 -9.11932553671439 -1.8776844407056097 -0.31884265709419135 4.294798540239813 -3.215748380780521 12.875842064101201 8.11596920539994 7.994672976919087 -16.138875147954852 0 0 0 -13.514468689991272 21.24787016163003 5.926564313977493 -8.798288626722353 1.8106145936649871 -6.806967042177243 0 0 0 0 0 0 -4.620172421438592 1.021492468292214 -11.85025168484014 -48.76723105705271 28.84367297019209 -50.17051432347762 -82.28894229431104 14.028418836670266 16.767870619974996 -6.602935427304392 -0.7883652567139308 -12.185667570598842 0 0 0 0 0 0 0 0 0 0 0 0 0 0 0 0 0 0 0 0 0 0 0 0 0 0 0 0 0 0 0 0 0 0 0 0 0 0 0 0 0 0 0 0 0 19.38741160713786 -3.8512533981497143 13.570307862989416 27.965101980090907 16.8332938399627 54.08456407550095 8.873254882204018 -1.4349694489473317 -10.282055025153717 2.450495055736796 -0.6943906247973464 3.800510076504835 0 0 0 0 0 0 0 0 0 0 0 0 0 0 0 0 0 0 0 0 0 0 0 0 0 0 0 0 0 0 0 0 0 0 0 0 0 0 0 0 0 0 0 0 0 29.605399225070936 -7.767709104058956 -4.198379981544147 -7.703183552950371 18.69736302985144 -3.2487218038699206 -1.6732780762719088 -21.638193012632122 1.7201280172388242 0 0 0 -18.55762584106306 -9.856592116590038 -0.04282043767799079 0.5684573613199212 17.469564985329193 -2.970377688393312 3.87417458453956 -10.966008582385696 -0.7763760840850026 0 0 0
-2.082361964161164 1.0310992289973753 -0.007255448270217174 -6.078394834797437 -1.2634955141456 -1.0729173639492542 4.180451380692286 -1.0994983786346109 13.926226450786302 8.432213581265124 6.572058485796831 -18.704493572392614 0 0 0 -14.581474854485736 18.119711443546716 7.271239843142013 -10.555978808097468 4.515700129472941 -6.787543305561945 0 0 0 0 0 0 -4.202010210291214 0.9340182970743227 -13.00455949564077 -51.47339280799327 26.852711033345635 -47.780783828215746 -87.26397269984042 13.135839402420412 18.172390485203405 -6.5442845830137415 -1.496347363044777 -12.471972615894586 0 0 0 0 0 0 0 0 0 0 0 0 0 0 0 0 0 0 0 0 0 0 0 0 0 0 0 0 0 0 0 0 0 0 0 0 0 0 0 0 0 0 0 0 0 19.268231096192434 -3.6607274680443243 12.909751311112288 21.886701309539013 14.597045956688946 51.70380727362403 11.158700661990338 4.8781075582562705 -6.313039302151085 3.028731646313603 -0.6701790890436933 3.570470811102535 0 0 0 0 0 0 0 0 0 0 0 0 0 0 0 0 0 0 0 0 0 0 0 0 0 0 0 0 0 0 0 0 0 0 0 0 0 0 0 0 0 0 0 0 0 27.755401505489797 -11.528918236095766 -1.9749099577764724 -3.181716926498621 22.629124150416473 -5.9175733630845535 -3.570753697081838 -21.07289007073662 3.5917488725600197 0 0 0 -19.90423709484228 -12.550814828456366 -1.1562409343469455 -3.9450529562527423 22.752861370542107 1.443084518158901 3.5497788644608828 -15.576825072137776 -0.8264590860729755 0 0 0
